<?xml version="1.0" standalone="no"?>
<!DOCTYPE svg PUBLIC "-//W3C//DTD SVG 20010904//EN"
 "http://www.w3.org/TR/2001/REC-SVG-20010904/DTD/svg10.dtd">
<svg version="1.0" xmlns="http://www.w3.org/2000/svg"
 width="495.000000pt" height="495.000000pt" viewBox="0 0 495.000000 495.000000"
 preserveAspectRatio="xMidYMid meet">

<g transform="translate(0.000000,495.000000) scale(0.100000,-0.100000)"
fill="#000000" stroke="none">
<path d="M2190 4926 c-587 -75 -1091 -327 -1495 -748 -358 -373 -580 -828
-662 -1358 -25 -161 -25 -529 0 -690 82 -530 304 -985 662 -1358 364 -380 823
-628 1330 -721 1167 -215 2314 424 2748 1529 198 505 221 1074 66 1600 -243
824 -927 1479 -1759 1686 -74 18 -182 40 -240 49 -143 23 -511 28 -650 11z
m701 -180 c962 -183 1687 -917 1860 -1881 21 -114 24 -161 24 -390 0 -229 -3
-276 -24 -390 -174 -973 -913 -1712 -1886 -1886 -114 -21 -161 -24 -390 -24
-292 0 -409 15 -638 81 -778 224 -1390 850 -1592 1629 -62 239 -70 303 -69
590 0 288 8 358 69 591 227 867 959 1538 1835 1683 182 30 174 29 435 26 210
-2 257 -6 376 -29z"/>
<path d="M2176 3559 c-51 -12 -76 -35 -76 -69 0 -54 28 -65 176 -68 l134 -4 0
-152 0 -151 -112 -22 c-584 -113 -920 -444 -1042 -1028 l-22 -110 -87 -24 -87
-23 0 -54 0 -54 1405 0 1405 0 11 27 c5 15 9 41 7 57 -3 30 -6 32 -83 50 l-81
19 -22 108 c-121 590 -470 932 -1059 1036 l-93 17 0 152 0 152 128 4 c151 5
182 16 182 63 0 18 -9 43 -19 56 l-19 24 -304 2 c-166 1 -321 -3 -342 -8z
m507 -610 c219 -44 407 -142 570 -298 96 -92 154 -165 207 -264 68 -126 110
-276 110 -393 l0 -54 -1090 0 -1090 0 0 53 c0 206 103 436 274 616 272 284
659 413 1019 340z"/>
</g>
</svg>
