<?xml version="1.0" standalone="no"?>
<!DOCTYPE svg PUBLIC "-//W3C//DTD SVG 20010904//EN"
 "http://www.w3.org/TR/2001/REC-SVG-20010904/DTD/svg10.dtd">
<svg version="1.0" xmlns="http://www.w3.org/2000/svg"
 width="502.000000pt" height="497.000000pt" viewBox="0 0 502.000000 497.000000"
 preserveAspectRatio="xMidYMid meet">

<g transform="translate(0.000000,497.000000) scale(0.100000,-0.100000)"
fill="#000000" stroke="none">
<path d="M2310 4954 c-599 -55 -1159 -314 -1575 -729 -759 -760 -941 -1907
-454 -2865 122 -240 276 -447 485 -650 395 -384 867 -611 1439 -692 116 -16
491 -16 615 0 455 61 854 222 1220 496 137 102 379 347 487 491 252 341 404
708 470 1142 23 154 23 518 0 673 -69 453 -252 870 -532 1215 -99 122 -308
323 -430 416 -342 257 -736 420 -1167 485 -99 14 -464 26 -558 18z m600 -188
c254 -44 435 -104 671 -222 456 -227 827 -605 1050 -1069 102 -211 168 -425
205 -665 25 -159 25 -490 1 -655 -90 -603 -414 -1151 -894 -1512 -214 -161
-434 -277 -675 -358 -797 -265 -1657 -98 -2293 447 -416 356 -694 858 -780
1406 -22 141 -30 404 -16 552 62 655 391 1240 921 1639 356 268 718 406 1220
465 19 2 127 3 240 1 163 -3 235 -9 350 -29z"/>
<path d="M2492 3938 c-11 -18 -120 -211 -242 -428 -122 -217 -227 -400 -233
-406 -7 -6 -217 -46 -467 -88 -250 -43 -481 -83 -514 -88 l-58 -11 365 -366
365 -366 -70 -488 c-38 -269 -67 -491 -64 -494 2 -3 213 91 468 208 255 117
468 212 473 212 6 0 218 -96 473 -213 254 -117 465 -211 467 -208 3 2 -26 225
-65 494 l-69 489 366 366 365 366 -58 11 c-33 5 -264 45 -514 87 -250 43 -460
83 -467 89 -7 6 -118 200 -249 431 -130 231 -240 424 -244 428 -4 5 -17 -6
-28 -25z m218 -633 c105 -187 195 -343 198 -347 4 -4 180 -37 392 -73 212 -36
392 -68 399 -71 10 -3 -81 -101 -267 -287 l-281 -282 54 -385 c30 -212 54
-388 52 -391 -1 -3 -166 70 -367 162 -201 93 -369 168 -375 169 -5 0 -174 -76
-375 -168 -280 -129 -366 -165 -367 -153 -2 9 22 185 52 391 l54 375 -285 282
c-221 218 -281 282 -267 287 17 5 773 136 785 136 4 0 95 158 203 350 109 193
199 349 200 348 2 -2 89 -156 195 -343z"/>
</g>
</svg>
